<?xml version="1.0" encoding="utf-8"?>
<!-- Generator: Adobe Illustrator 16.0.0, SVG Export Plug-In . SVG Version: 6.00 Build 0)  -->
<!DOCTYPE svg PUBLIC "-//W3C//DTD SVG 1.1//EN" "http://www.w3.org/Graphics/SVG/1.1/DTD/svg11.dtd">
<svg version="1.1" id="Capa_1" xmlns="http://www.w3.org/2000/svg" xmlns:xlink="http://www.w3.org/1999/xlink" x="0px" y="0px"
	 width="511.938px" height="512px" viewBox="0 0 511.938 512" enable-background="new 0 0 511.938 512" xml:space="preserve">
<g>
	<path d="M75.871,280.538c-0.881-0.172-1.828-0.193-2.634-0.539c-3.998-1.72-7.665-4.013-10.964-6.84
		c-1.469-1.261-2.947-1.832-4.959-1.953c-6.649-0.399-13.188-1.651-19.401-4.115c-4.213-1.672-8.008-4.032-10.342-8.17
		c-0.213-0.379-0.583-0.67-0.849-0.966c-1.098-0.055-1.354,0.775-1.628,1.425c-1.212,2.876-1.846,5.907-1.947,9.011
		c-0.203,6.228-1.63,12.223-3.195,18.204c-0.859,3.283-1.791,6.552-2.527,9.861c-2.011,9.032-1.284,18.132-0.497,27.223
		c0.16,1.845,0.317,3.692,0.581,5.523c0.427,2.979,1.835,4.467,4.809,4.721c5.847,0.498,11.689,0.827,17.555-0.097
		c6.869-1.081,13.791-1.621,20.764-1.557c19.777,0.188,39.557,0.17,59.332,0.469c18.073,0.273,36.141,0.883,54.212,1.294
		c9.113,0.206,18.229,0.293,27.344,0.458c8.187,0.146,16.375,0.259,24.559,0.533c2.762,0.094,5.53,0.516,8.258,1
		c3.961,0.703,7.907,1.324,11.953,1.313c13.288-0.041,26.576,0.103,39.861-0.058c5.396-0.063,10.795-0.627,16.175-1.156
		c1.968-0.194,3.887-0.928,5.816-1.454c1.666-0.455,2.62-1.524,2.753-3.299c0.067-0.923,0.276-1.835,0.343-2.757
		c0.438-6.164,0.799-12.334,1.29-18.492c0.997-12.497,2.714-24.863,7.188-36.682c2.96-7.815,6.318-15.43,11.39-22.166
		c1.787-2.373,3.874-4.401,6.477-5.863c4.02-2.26,8.033-1.817,11.554,1.189c2.034,1.738,3.605,3.848,4.76,6.215
		c2.158,4.434,4.158,8.944,6.23,13.42c0.582,1.257,1.109,2.543,1.791,3.744c6.473,11.379,9.752,23.623,10.004,36.692
		c0.045,2.317-0.016,4.638,0.047,6.953c0.023,0.889,0.254,1.772,0.395,2.672c0.627,0.101,1.096,0.306,1.51,0.226
		c27.143-5.177,54.277-10.371,81.408-15.596c1.043-0.201,2.025-0.71,3.195-1.133c0.293-0.995,0.633-2.002,0.885-3.03
		c2.309-9.444,4.486-18.925,6.945-28.329c1.17-4.471,2.787-8.83,4.348-13.188c1.201-3.354,2.936-6.421,5.252-9.192
		c3.141-3.754,8.213-3.622,10.844,0.791c2.938,4.925,5.422,10.07,5.873,15.921c0.807,10.465,2.277,20.891,1.809,31.428
		c-0.039,0.891-0.006,1.783-0.006,3.15c0.738-0.56,1.234-0.734,1.34-1.044c3.803-11.138,4.906-22.624,3.834-34.272
		c-0.934-10.142-2.832-20.155-4.857-30.137c-0.797-3.933-1.865-7.836-2.301-11.808c-0.914-8.372-5.662-14.17-12.063-18.933
		c-2.846-2.118-5.783-4.146-8.836-5.947c-3.381-1.994-6.148-4.593-8.773-7.459c-7.096-7.746-14.223-15.46-21.445-23.085
		c-7.234-7.64-15.285-14.392-23.42-21.042c-6.279-5.134-13.691-7.813-21.479-9.253c-5.258-0.973-10.438,0.271-15.174,2.934
		c-1.342,0.753-2.715,1.447-4.072,2.17c0.002,0.003,0.125,0.117,0.125,0.117c0.709-2.06,2.322-3.201,4.172-4.1
		c1.357-0.66,2.721-1.315,4.031-1.95c-0.365-1.552-1.5-1.139-2.295-1.184c-7.098-0.397-14.197-0.76-21.299-1.078
		c-23.165-1.036-46.344-1.261-69.528-1.086c-5.41,0.04-10.824-0.034-16.229,0.164c-12.967,0.475-25.922,1.069-38.829,2.582
		c-7.213,0.845-14.42,1.665-21.514,3.215c-3.917,0.857-7.786,1.948-11.645,3.047c-1.796,0.512-3.491,0.743-5.156,0.037
		c-0.113-1.6,1.029-1.701,1.789-2.032c8.137-3.546,16.667-5.58,25.453-6.732c20.113-2.638,40.334-3.353,60.583-3.693
		c21.645-0.365,43.271,0.403,64.893,1.14c11.118,0.38,22.229,1.05,33.333,1.745c6.166,0.387,12.305,1.132,18.328,2.636
		c4.717,1.177,8.914,3.288,12.92,6.049c9.738,6.712,18.168,14.866,26.295,23.359c7.371,7.704,14.641,15.508,21.914,23.305
		c2.434,2.608,5.104,4.894,7.939,7.065c5.395,4.128,10.658,8.439,15.799,12.882c3.037,2.625,5.77,5.636,6.979,9.638
		c0.396,1.311,0.838,2.689,0.811,4.027c-0.094,4.381,0.896,8.583,1.695,12.836c1.797,9.563,3.809,19.098,4.646,28.811
		c0.424,4.918,0.824,9.836,0.535,14.809c-0.502,8.724-2.617,17.072-5.236,25.344c-0.602,1.9-1.061,3.87-1.344,5.844
		c-0.549,3.82-0.939,7.666-1.363,11.506c-0.08,0.746-0.01,1.508-0.01,2.459c0.85,0.385,1.635,0.834,2.479,1.099
		c1.326,0.413,2.725,0.604,4.031,1.063c2.475,0.867,4.924,1.813,7.35,2.811c3.486,1.434,4.703,4.902,0.281,7.682
		c-2.34,1.471-4.893,2.664-7.467,3.69c-4.588,1.831-9.271,3.417-13.9,5.151c-2.736,1.026-5.436,2.162-8.168,3.207
		c-1.295,0.493-2.611,1.18-3.951,1.27c-4.525,0.301-8.771,1.77-13.105,2.854c-14.85,3.719-29.871,6.566-44.975,9.014
		c-14.477,2.346-28.975,4.566-43.451,6.91c-2.584,0.418-5.113,1.158-7.666,1.76c-11.27,2.652-22.529,5.337-33.807,7.953
		c-13.859,3.215-27.879,5.586-41.983,7.371c-8.115,1.027-16.303,1.478-24.451,2.256c-13.725,1.311-27.485,1.048-41.233,0.787
		c-8.646-0.162-17.282-0.814-25.92-1.289c-7.097-0.39-14.192-0.818-21.285-1.269c-7.554-0.479-15.103-1.051-22.659-1.489
		c-8.489-0.494-16.902-1.398-25.282-2.977c-11.547-2.176-23.25-3.243-34.999-3.75c-13.74-0.594-27.485-1.15-41.213-1.971
		c-13.723-0.819-27.431-1.928-40.964-4.523c-3.335-0.641-6.668-1.303-9.975-2.068c-0.988-0.229-1.885-0.85-2.666-1.217
		c-0.204-1.566,0.774-1.92,1.624-2.13c4.044-0.993,8.077-2.101,12.178-2.786c6.7-1.119,13.45-1.939,20.177-2.902
		c0.558-0.078,1.099-0.271,2.028-0.51c-0.493-0.766-0.705-1.345-1.115-1.693c-4.765-4.047-8.581-8.865-11.686-14.27
		c-1.008-1.755-2.138-3.271-4.173-4.117c-2.773-1.156-4.182-3.388-4.463-6.492c-0.559-6.147-1.455-12.258-1.603-18.454
		c-0.192-7.981,1.273-15.673,3.44-23.279c1.824-6.401,3.333-12.838,3.665-19.542c0.222-4.486,1.199-8.859,3.45-12.88
		c0.733-1.312,1.092-2.858,1.466-4.337c0.721-2.844,1.176-5.762,2.017-8.564c2.259-7.539,6.871-13.1,14.341-15.934
		c6.784-2.573,13.607-5.053,20.476-7.389c5.563-1.893,10.928-4.028,16.056-7.039c13.7-8.041,28.387-13.641,44.181-15.952
		c2.51-0.368,4.258-1.523,5.915-3.223c8.31-8.525,16.897-16.763,25.911-24.545c11.132-9.609,22.654-18.685,35.616-25.765
		c2.212-1.209,2.213-1.207,5.232-0.868c0.244,1.29-0.866,1.471-1.609,1.874c-5.579,3.027-10.956,6.361-15.908,10.351
		c-0.466,0.375-0.91,0.777-1.358,1.163c0.605,0.992,1.066,0.297,1.491,0.057c5.376-3.041,10.672-6.236,16.472-8.447
		c0.705-0.269,1.423-0.503,2.409-0.85c0.392,1.765,0.744,3.346,1.245,5.598c1.309-2.313,0.393-4.456,1.478-6.256
		c1.833-1.284,4.061-1.896,6.351-2.256c7.778-1.218,15.531-2.712,23.354-3.508c26.929-2.741,53.95-3.834,81.013-3.707
		c13.602,0.064,27.206,0.37,40.752,1.701c5.036,0.495,10.124,0.841,14.983,2.122c0.197,1.074,0.35,1.911,0.588,3.205
		c1.234-1.271,2.152-2.217,3.643-3.751c-0.08,1.268,0.033,1.822-0.162,2.229c-5.156,10.682-7.777,22.109-9.961,33.669
		c-1.004,5.313-2.041,10.621-3.064,15.932c-0.088,0.455-0.184,0.909-0.264,1.366c-0.564,3.25-2.273,4.847-5.736,5.574
		c-11.932,2.506-23.779,5.411-35.645,8.235c-13.373,3.184-26.675,6.646-39.817,10.695c-1.877,0.578-3.774,1.21-5.902,0.761
		c5.85-1.926,11.676-3.923,17.552-5.766c15.631-4.901,31.459-9.077,47.442-12.667c1.605-0.36,3.223-0.696,4.581-2.03
		c-1.329-0.043-2.659-0.133-3.988-0.124c-39.259,0.263-78.515,0.53-117.772,0.806c-24.883,0.174-49.766,0.351-74.649,0.548
		c-4.636,0.036-9.272,0.136-13.907,0.285c-1.534,0.051-3.076,0.266-4.588,0.549c-11.719,2.193-23.156,5.423-34.191,9.928
		c-3.839,1.566-7.408,3.798-11.087,5.75c-0.817,0.434-1.534,1.072-2.373,1.443c-4.946,2.189-7.84,6.326-10.387,10.809
		c-0.44,0.775-0.899,1.539-1.757,3.005c-0.345-3.665,1.408-5.973,2.459-8.882c-1.139,0.105-1.739,0.059-2.273,0.227
		c-9.687,3.03-18.243,6.42-21.688,8.614c0.681,0.652,1.22,1.433,1.964,1.839c7.81,4.269,11.491,11.459,13.644,19.582
		c1.342,5.065,2.335,10.243,3.133,15.424c0.332,2.159,1.07,3.752,2.678,5.129c2.826,2.42,5.808,4.597,9.062,6.41
		c1.033,0.574,2.33,0.848,2.852,2.127L75.871,280.538z M314.073,342.87c0.3-0.865,0.096-1.593-0.604-2.183
		c-0.194-1.145-0.54-2.201-1.896-3.068c0.121,1.604,0.293,2.773,1.99,2.99c-0.495,0.916-0.275,1.642,0.595,2.188
		c-0.028,1.355,0.563,2.295,1.854,2.766c0.183,0.578,0.221,1.272,0.575,1.715c2.124,2.658,4.396,5.172,7.212,7.146
		c8.811,6.179,18.666,4.83,26.048-1.499c4.283-3.673,7.539-8.122,10-13.201c4.48-9.24,6.215-19.033,6.125-29.214
		c-0.082-9.229-1.813-18.12-5.75-26.515c-2.803-5.977-6.652-11.176-12.12-14.946c-8.78-6.056-18.131-4.039-23.737,0.481
		c-0.604,0.485-1.132,1.092-0.363,1.839c2.617-1.013,5.146-2.149,7.773-2.972c3.273-1.024,5.874-0.682,7.635,0.655
		c-0.585,0.349-1.162,0.693-2.092,1.247c1.025,0.471,1.692,0.803,2.381,1.085c3.508,1.451,6.323,3.8,8.795,6.634
		c2.464,2.823,4.389,5.991,5.82,9.42c6.918,16.563,6.688,33.146-0.529,49.498c-2.982,6.754-7.51,12.422-14.557,15.557
		c-0.357,0.158-0.618,0.54-1.038,0.921c0.942,0.348,1.724,0.636,3.101,1.144c-6.46,2.098-11.931,1.276-16.935-2.104
		c-2.148-1.453-3.919-3.461-5.884-5.19c-0.76-0.668-1.172-1.916-2.546-1.621C316.014,343.658,315.798,343.338,314.073,342.87z
		 M481.245,265.928c0.07,0.678-0.035,1.227,0.188,1.531c2.627,3.605,3.59,7.814,4.479,12.063c1.918,9.148,2.156,18.405,1.564,27.682
		c-0.322,5.082-1.033,10.145-2.586,15.036c-0.373,1.177-0.797,2.339-1.227,3.497c-0.471,1.259-1.699,2.171-1.791,3.81
		c0.943,0.142,1.795,0.271,2.678,0.404c-1.391,2.409-1.391,2.409-4.25,4.073c1.83,1.08,3.438,0.746,4.5-0.733
		c1.242-1.731,2.309-3.655,3.098-5.638c2.023-5.065,2.697-10.461,3.23-15.836c1.072-10.81,0.73-21.603-0.904-32.346
		c-0.652-4.294-1.643-8.516-3.398-12.483c-0.797-1.8-1.98-3.479-3.242-5.001c-0.873-1.055-2.211-1.482-3.971-0.399
		c1.811,1.325,3.922,1.945,4.561,4.036c0.064,0.212-0.115,0.499-0.18,0.756C483.129,266.236,482.27,266.098,481.245,265.928z
		 M56.957,260.557c0.288-0.379,0.442-0.49,0.448-0.606c0.021-0.453,0.063-0.921-0.023-1.359c-1.918-9.594-7.11-17.208-14.371-23.526
		c-1.559-1.355-2.693-0.828-4.193,1.867c1.167,1.078,2.38,2.217,3.613,3.334c1.251,1.133,2.58,2.188,3.77,3.383
		c1.19,1.195,2.306,2.476,3.354,3.797c1.047,1.322,2.039,2.701,2.926,4.136c0.887,1.435,1.591,2.979,2.417,4.455
		C55.681,257.438,55.758,259.217,56.957,260.557z"/>
	<path d="M62.233,295.915c-3.821-2.255-8.036-2.793-12.684-3.106c0.605,1.39,1.501,2.471,1.419,3.471
		c-0.147,1.789-0.885,3.529-1.385,5.326c-1.713,0.306-3.157,0.563-5.169,0.922c1.827,1.328,3.405,0.949,4.86,1.094
		c1.538,0.152,3.083,0.243,4.614,0.441c1.46,0.188,3.033-0.012,4.859,1.127c-3.754,1.166-7.162,0.5-10.563,0.985
		c-0.337,0.992-0.683,1.822-0.9,2.685c-0.341,1.348-0.636,2.707-0.877,4.074c-0.31,1.758-1.256,2.744-3.079,2.887
		c-0.337,0.027-0.651,0.339-1.286,0.688c3.379,0.768,6.517,0.063,9.438,0.825c0.252,1.149-0.515,1.119-1.044,1.164
		c-1.835,0.155-3.675,0.244-5.555,0.36c-1.566,1.949-1.298,4.102-1.382,6.225c2.096,1.345,4.045,0.549,5.96,0.189
		c1.528-0.287,2.948-0.765,4.004-2.086c1.542-1.932,3.275-3.709,4.811-5.643c3.664-4.613,7.762-8.8,12.082-12.794
		c4.295-3.972,9.267-5.839,15.142-5.874c21.796-0.136,43.585,0.047,65.372,0.768c12.203,0.402,24.41,0.707,36.615,1.064
		c1.39,0.039,2.784,0.082,4.167,0.217c4.427,0.434,8.322,1.871,11.503,5.251c5.717,6.073,11.629,11.964,17.474,17.914
		c1.082,1.104,2.243,2.126,3.336,3.22c1.063,1.062,2.275,1.498,3.784,1.211c4.862-0.926,9.666-2.052,14.231-4.018
		c0.262-0.111,0.457-0.383,0.632-0.536c0.063-1.047-0.718-0.919-1.232-0.991c-1.682-0.244-3.39-0.334-5.058-0.645
		c-1.159-0.215-2.27-0.691-3.692-1.146c2.275-1.097,2.275-1.098,5.826-1.184c1.854-0.046,3.71-0.054,5.563-0.139
		c1.993-0.088,3.984-0.246,6.004-0.872c-1.273-0.13-2.544-0.354-3.818-0.368c-2.905-0.033-3.957-0.027-5.203-4.049
		c-0.32-1.033-0.593-2.088-1.01-3.081c-0.407-0.97-0.97-1.876-1.484-2.849c-5.854-0.916-11.8,0.877-17.569-1.187
		c0.542-1.142,1.38-0.74,2.002-0.774c8.414-0.49,16.83-0.94,25.266-1.883c-3.652-0.353-7.304-0.705-11.07-1.068
		c-0.653-1.449-1.274-2.828-1.977-4.388c-9.162-0.735-18.283,1.345-27.57,0.775c0.456-1.515,1.434-1.722,2.242-1.997
		c4.091-1.396,8.148-2.948,12.329-4.016c9.464-2.412,19.122-3.77,28.887-3.84c6.795-0.051,13.559,0.615,20.169,2.517
		c5.944,1.707,10.483,5.134,13.802,10.263c3.059,4.727,5.112,9.859,6.131,15.405c0.481,2.614,0.498,5.229-0.025,7.832
		c-0.604,3.006-2.254,5.058-5.428,5.556c-5.031,0.79-10.045,1.887-15.107,2.253c-11.121,0.8-22.25,0.513-33.309-1.054
		c-3.359-0.475-6.697-1.164-9.998-1.948c-4.377-1.042-8.763-1.729-13.283-1.806c-20.553-0.34-41.106-0.73-61.657-1.204
		c-19.779-0.455-39.553-1.086-59.331-1.542c-10.661-0.245-21.328-0.249-31.99-0.438c-3.618-0.064-7.058,0.865-10.48,1.733
		c-5.895,1.496-11.838,2.324-17.897,1.851c-3.061-0.238-6.104-0.828-9.131-1.391c-2.611-0.484-3.886-2.218-4.216-4.834
		c-1.236-9.807-0.36-19.434,2.344-28.911c0.823-2.884,2.583-4.888,5.616-5.571c1.352-0.306,2.695-0.752,4.064-0.859
		c10.234-0.794,19.982,1.165,29.317,5.346c1.027,0.46,1.996,0.969,1.564,2.389L62.233,295.915z"/>
	<path d="M131.643,286.084c-9.241-0.186-20.042-0.523-30.729-2.393c-6.552-1.146-13.009-2.68-19.194-5.17
		c-10.117-4.076-15.881-11.834-18.565-22.153c-0.514-1.978-0.545-3.962-0.055-5.96c1.031-4.199,3.388-6.271,7.748-6.721
		c2.917-0.301,5.837-0.56,8.756-0.84c9.69-0.932,19.415-1.16,29.135-1.57c12.208-0.517,24.399-0.153,36.592,0.215
		c12.655,0.382,25.31,0.832,37.959,1.394c9.255,0.409,18.499,1.048,27.749,1.585c0.617,0.036,1.236,0.057,1.848,0.141
		c3.794,0.513,6.031,3.317,5.587,7.121c-0.123,1.061-0.368,2.172-0.847,3.11c-3.824,7.483-8.322,14.423-15.343,19.419
		c-5.814,4.137-12.382,6.195-19.284,7.397C166.529,284.527,149.913,285.764,131.643,286.084z M145.35,250.009
		c-0.936-0.896-1.567-1.543-2.244-2.14c-5.071-4.473-11.421-4.719-16.307-1.921c-3.985,2.282-6.48,5.606-7.914,9.856
		c-0.433,1.285-0.291,2.813-1.942,4.004c-1.31,0.043-2.991,0.141-4.673,0.149c-6.178,0.031-12.357-0.021-18.535,0.065
		c-4.477,0.063-8.954,0.244-13.426,0.476c-1.372,0.071-2.901-0.089-4.236,1.065c2.526,1.428,5.024,1.336,7.476,1.394
		c9.728,0.226,19.458,0.385,29.186,0.62c1.666,0.041,3.404-0.245,5.174,0.686c0.348,0.709,0.769,1.52,1.149,2.348
		c1.611,3.514,4.234,6.091,7.611,7.826c5.083,2.611,10.072,2.5,14.851-0.896c2.192-1.558,3.795-3.604,5.189-5.851
		c0.806-1.295,1.57-2.616,2.455-4.101c1.565-0.056,3.095-0.159,4.625-0.155c4.325,0.013,8.649,0.092,12.975,0.104
		c7.876,0.022,15.754,0.101,23.629-0.011c4.01-0.055,8.016-0.444,12.02-0.731c0.96-0.067,1.99-0.192,2.61-1.478
		c-0.905-0.094-1.511-0.201-2.119-0.215c-11.427-0.248-22.854-0.475-34.281-0.728c-5.559-0.124-11.118-0.26-16.674-0.464
		c-2.313-0.085-2.31-0.172-2.966-3.239c0.878,0,1.724,0,3.512,0c-1.263-0.714-1.745-0.987-2.228-1.261
		c-3.575-2.021-3.575-2.021-2.57-6.204c0.072-0.299,0.21-0.604,0.183-0.896c-0.023-0.242-0.244-0.467-0.455-0.834
		C146.826,248.212,146.264,248.896,145.35,250.009z"/>
	<path d="M384.792,144.328c-0.236-1.249-0.32-1.7-0.406-2.151c0.176-0.228,0.307-0.557,0.539-0.665
		c4.279-1.987,8.809-1.611,13.203-0.889c8.99,1.479,17.059,5.1,24.094,11.055c6.016,5.095,11.855,10.357,17.221,16.135
		c8.004,8.617,15.012,18.016,21.693,27.667c0.395,0.57,0.496,1.342,0.885,2.449c-2.414-0.141-4.398-0.193-6.375-0.381
		c-8.943-0.852-17.885-0.751-26.828-0.019c-5.385,0.441-10.783,0.74-16.148,1.353c-8.734,0.998-17.447,2.185-26.164,3.324
		c-5.66,0.741-11.311,1.56-16.969,2.303c-0.883,0.116-1.791,0.017-2.498,0.017c-1-0.982-0.635-1.932-0.451-2.786
		c2.063-9.664,4.162-19.32,6.252-28.979c1.467-6.784,2.994-13.556,4.371-20.358c0.535-2.649,1.545-4.989,3.285-7.035
		C381.584,144.085,382.432,142.281,384.792,144.328z"/>
	<path d="M241.437,244.732c-0.318-0.239-0.664-0.498-1.059-0.797c0.08-0.115,0.163-0.383,0.329-0.451
		c6.292-2.613,12.92-4.088,19.531-5.56c9.648-2.146,19.359-3.979,29.193-5.088c2.189-0.248,4.102-1.163,6.008-2.263
		c11.275-6.508,23.211-11.434,35.847-14.623c0.097-0.024,0.248,0.167,0.627,0.441c-3.72,1.426-7.321,2.701-10.838,4.18
		c-5.692,2.392-11.345,4.884-16.979,7.406c-1.364,0.61-2.636,1.467-3.896,3.198c2.702,0,4.906,0,7.325,0c0,1.038,0,1.747,0,2.427
		c0.392,0.09,0.655,0.235,0.873,0.185c0.57-0.136,1.231-0.658,1.661-0.499c4.201,1.559,5.062,3.393,3.956,6.953
		c-1.745,5.621-4.991,10.254-9.434,14.041c-3.552,3.027-7.53,5.388-11.859,7.148c-6.023,2.452-12.227,4.34-18.523,5.936
		c-9.152,2.314-18.474,3.67-27.842,4.63c-5.22,0.536-10.485,0.735-15.734,0.827c-2.685,0.047-5.166,0.506-7.653,1.477
		c-9.067,3.537-18.309,6.563-27.702,9.111c-1.319,0.357-2.672,0.59-4.74,1.037c1.637-1.448,2.954-1.73,4.273-2.1
		c9.836-2.748,19.245-6.684,28.725-10.419c1.654-0.651,2.924-1.581,3.533-3.385c0.388-1.153,1.084-2.218,1.739-3.263
		c4.099-6.545,8.227-13.069,12.333-19.608C241.282,245.432,241.317,245.111,241.437,244.732z M295.9,249.232
		c-1.367-0.408-1.906,0.735-2.589,1.469c-3.407,3.658-7.495,6.324-12.06,8.26c-2.818,1.193-5.723,2.184-8.58,3.286
		c-0.639,0.247-1.242,0.582-2.029,0.956c0.422,0.258,0.568,0.426,0.678,0.402c6.5-1.362,12.683-3.573,18.172-7.369
		c2.635-1.82,5.153-3.883,6.285-7.103c0.196-0.182,0.416-0.345,0.575-0.553c0.058-0.074-0.028-0.257-0.048-0.39
		c-0.199,0.088-0.55,0.151-0.568,0.27C295.697,248.704,295.834,248.975,295.9,249.232z M289.158,239.447
		c0.033-0.151,0.066-0.303,0.101-0.454c-0.754,0-1.522-0.091-2.263,0.014c-8.403,1.187-16.784,2.45-24.949,4.902
		c-11.938,3.586-20.918,10.926-27.54,21.333c-0.293,0.46-0.285,1.111-0.462,1.861c2.158,0.813,3.806,0.473,5.118-1.176
		c0.961-1.205,1.807-2.502,2.744-3.729c3.896-5.105,8.682-9.18,14.335-12.217c5.189-2.787,10.679-4.844,16.361-6.352
		C278.105,242.174,283.638,240.838,289.158,239.447z"/>
	<path d="M145.71,226.805c1.853,0.199,3.058,0.389,4.271,0.453c13.411,0.719,26.83,1.316,40.233,2.158
		c9.854,0.618,19.679,1.613,29.397,3.456c1.338,0.254,2.697,0.396,4.056,1.071c-0.778,0.08-1.57,0.295-2.334,0.222
		c-5.832-0.554-11.655-1.201-17.488-1.745c-4.3-0.4-8.614-0.659-12.918-1.034c-20.17-1.754-40.383-2.069-60.612-1.866
		c-3.242,0.033-6.486-0.006-9.726,0.101c-5.089,0.166-10.173,0.461-15.261,0.634c-2.442,0.084-4.89,0.016-7.372-0.395
		c0.819-0.121,1.635-0.285,2.458-0.358c6.764-0.606,13.522-1.287,20.295-1.762c5.696-0.399,11.407-0.679,17.116-0.761
		c2.64-0.037,4.683-0.838,6.632-2.59c6.732-6.056,14.531-10.397,22.887-13.779c1.263-0.51,2.573-0.902,4.212-1.473
		c-0.968,1.914-2.673,2.082-3.938,2.854c-1.447,0.883-2.983,1.618-4.464,2.448c-1.616,0.904-3.231,1.813-4.813,2.775
		c-1.449,0.883-2.868,1.816-4.27,2.771s-2.785,1.941-4.142,2.962C148.608,223.943,147.018,224.65,145.71,226.805z"/>
	<path d="M307.333,273.477c0.838-5.479,1.709-10.943,3.575-16.201c2.427-6.84,6.372-12.631,11.872-17.338
		c6.553-5.611,17.145-6.146,23.953,0.732c-1.034,0.77-1.648-0.27-2.287-0.595c-6.308-3.224-12.179-2.519-17.743,1.739
		c-4.38,3.353-7.408,7.804-10.105,12.492c-2.617,4.549-4.796,9.313-6.441,14.313c-0.482,1.462-1.029,2.908-1.656,4.313
		c-0.128,0.285-0.747,0.352-1.141,0.518L307.333,273.477z"/>
	<path d="M370.702,153.366c0.279-4.357,2.027-8.199,4.227-11.866c0.531-0.889,1.15-1.822,2.381-1.911
		c-0.002-0.002-0.123-0.116-0.125-0.119c-0.094,0.585-0.01,1.29-0.311,1.739c-2.322,3.493-3.99,7.28-5.316,11.241
		c-0.115,0.342-0.631,0.548-0.961,0.816L370.702,153.366z"/>
	<path d="M187.442,284.443c0.16,0.162,0.32,0.324,0.479,0.486c-0.279,0.096-0.563,0.271-0.834,0.254
		c-0.171-0.011-0.323-0.311-0.484-0.48C186.883,284.617,187.163,284.53,187.442,284.443z"/>
	<path d="M370.596,153.267c0,0.738,0,1.476,0,2.625c-1.17-1.328-0.49-1.914,0.111-2.521
		C370.702,153.366,370.596,153.267,370.596,153.267z"/>
	<path d="M265.539,218.938c0.129-0.041,0.258-0.082,0.388-0.123c0.008,0.188,0.015,0.377,0.022,0.563
		c-0.127-0.024-0.293-0.013-0.373-0.09C265.51,219.227,265.546,219.059,265.539,218.938z"/>
	<path d="M77.739,281.531c0.433,0.023,0.867,0.029,1.297,0.078c0.129,0.016,0.245,0.148,0.366,0.228
		c-0.209,0.134-0.508,0.427-0.61,0.369c-0.354-0.199-0.641-0.521-0.954-0.793C77.837,281.414,77.739,281.531,77.739,281.531z"/>
	<path d="M183.555,285.818c-0.261,0.093-0.492,0.175-0.723,0.256c-0.058-0.182-0.129-0.362-0.156-0.551
		c-0.003-0.022,0.263-0.147,0.348-0.106C183.216,285.508,183.372,285.672,183.555,285.818z"/>
	<path d="M307.358,273.449c0.041,0.227,0.082,0.451,0.094,0.514c-0.014-0.051-0.065-0.265-0.119-0.48
		C307.333,273.477,307.358,273.449,307.358,273.449z"/>
	<path d="M75.783,280.641c0.825-0.082,1.676-0.223,1.955,0.893c0.001-0.001,0.099-0.118,0.101-0.119
		c-0.859,0.168-1.659,0.201-1.966-0.876C75.871,280.538,75.783,280.641,75.783,280.641z"/>
	<path d="M81.796,282.988c0.045-0.092,0.09-0.182,0.134-0.272c0.06,0.14,0.119,0.276,0.178,0.415
		C82.005,283.083,81.9,283.035,81.796,282.988z"/>
	<polygon points="351.902,246.454 351.684,246.443 351.796,246.182 	"/>
	<path d="M62.204,295.854c0.259-0.024,0.517-0.051,0.775-0.076c-0.248,0.043-0.496,0.086-0.745,0.134
		C62.233,295.915,62.204,295.854,62.204,295.854z"/>
	<path fill="#FFFFFF" d="M295.9,249.232c-0.064-0.258-0.203-0.528-0.164-0.771c0.02-0.117,0.368-0.182,0.568-0.271
		c0.02,0.134,0.104,0.315,0.048,0.391c-0.159,0.208-0.379,0.371-0.569,0.557C295.787,249.143,295.9,249.232,295.9,249.232z"/>
	<path d="M139.291,251.441c0.315,0.486,0.527,1.121,0.968,1.43c0.99,0.691,2.094,1.221,3.374,1.939
		c-0.296,1.67-0.582,3.276-0.999,5.631c1.166-1.232,1.822-1.928,2.699-2.856c1.489,4.652,0.259,8.485-2.417,11.854
		c-3.269,4.115-7.728,5.571-12.795,4.375c-5.503-1.299-8.654-5.146-9.759-10.545c-0.871-4.258,0.002-8.261,2.775-11.739
		c5.22-6.552,16.012-5.896,19.314,0.185c-1.208-0.064-2.224-0.117-3.249-0.158c-0.224,0.106-0.597-0.633-0.68,0.143
		C138.779,251.613,139.035,251.527,139.291,251.441z"/>
	<path fill="#FFFFFF" d="M139.291,251.441c-0.256,0.086-0.512,0.172-0.769,0.257c0.083-0.774,0.456-0.035,0.68-0.142
		C139.212,251.543,139.291,251.441,139.291,251.441z"/>
</g>
</svg>
