<?xml version="1.0" encoding="utf-8"?>
<!-- Generator: Adobe Illustrator 16.0.0, SVG Export Plug-In . SVG Version: 6.00 Build 0)  -->
<!DOCTYPE svg PUBLIC "-//W3C//DTD SVG 1.1//EN" "http://www.w3.org/Graphics/SVG/1.1/DTD/svg11.dtd">
<svg version="1.1" id="Capa_1" xmlns="http://www.w3.org/2000/svg" xmlns:xlink="http://www.w3.org/1999/xlink" x="0px" y="0px"
	 width="511.938px" height="512px" viewBox="0.031 0 511.938 512" enable-background="new 0.031 0 511.938 512"
	 xml:space="preserve">
<g>
	<circle cx="37.931" cy="152.662" r="7.021"/>
	<circle cx="52.89" cy="170.174" r="7.021"/>
	<circle cx="67.436" cy="187.707" r="7.021"/>
	<circle cx="82.396" cy="205.015" r="7.021"/>
	<circle cx="96.692" cy="222.221" r="7.021"/>
	<circle cx="111.192" cy="239.937" r="7.021"/>
	<circle cx="125.947" cy="257.348" r="7.021"/>
	<circle cx="140.702" cy="274.4" r="7.021"/>
	<circle cx="154.744" cy="292.015" r="7.021"/>
	<circle cx="169.754" cy="309.783" r="7.021"/>
	<circle cx="183.795" cy="326.888" r="7.021"/>
	<circle cx="199.113" cy="344.706" r="7.021"/>
	<circle cx="164.634" cy="339.443" r="7.021"/>
	<circle cx="181.302" cy="366.049" r="7.021"/>
	<circle cx="157.613" cy="360.964" r="7.021"/>
	<circle cx="135.109" cy="356.286" r="7.021"/>
	<circle cx="113.086" cy="351.726" r="7.021"/>
	<circle cx="92.024" cy="346.463" r="7.021"/>
	<circle cx="68.354" cy="342.244" r="7.021"/>
	<circle cx="47.691" cy="337.685" r="7.021"/>
	<circle cx="24.887" cy="332.422" r="7.021"/>
	<circle cx="37.931" cy="388.264" r="7.021"/>
	<circle cx="61.333" cy="387.094" r="7.021"/>
	<circle cx="82.65" cy="388.264" r="7.021"/>
	<circle cx="107.626" cy="388.264" r="7.021"/>
	<circle cx="130.423" cy="388.264" r="7.021"/>
	<circle cx="151.485" cy="388.264" r="7.021"/>
	<circle cx="174.282" cy="389.616" r="7.021"/>
	<circle cx="146.507" cy="328.041" r="7.021"/>
	<circle cx="125.947" cy="316.803" r="7.021"/>
	<circle cx="106.065" cy="305.824" r="7.021"/>
	<circle cx="85.892" cy="293.586" r="7.021"/>
	<circle cx="66.932" cy="282.728" r="7.021"/>
	<circle cx="47.691" cy="271.388" r="7.021"/>
	<circle cx="26.933" cy="259.516" r="7.021"/>
	<circle cx="7.052" cy="246.957" r="7.021"/>
	<circle cx="225.157" cy="333.907" r="7.021"/>
	<circle cx="209.077" cy="316.803" r="7.021"/>
	<circle cx="199.113" cy="295.741" r="7.021"/>
	<circle cx="190.816" cy="274.4" r="7.021"/>
	<circle cx="181.302" cy="252.496" r="7.021"/>
	<circle cx="171.654" cy="232.916" r="7.021"/>
	<circle cx="164.634" cy="212.035" r="7.021"/>
	<circle cx="153.528" cy="190.973" r="7.021"/>
	<circle cx="144.464" cy="168.753" r="7.021"/>
	<circle cx="135.109" cy="150.46" r="7.021"/>
	<circle cx="229.543" cy="312.846" r="7.021"/>
	<circle cx="234.513" cy="289.749" r="7.021"/>
	<path d="M214.925,359.027c0,0-20.466,1.645-20.466,26.203s28.063,23.389,28.063,23.389l127.768,0.01l57.889-130.22
		c0,0,0.938-7.856,11.11-4.009c7.017,2.654,1.169,12.165,1.169,12.165l-54.38,122.063h145.891c0,0-14.033-88.633-33.914-127.207
		s-50.872-105.747-116.069-62.366c0,0,4.093-25.91-19.297-59.24l14.618-11.11l-16.957-21.05l-11.402,7.602
		c0,0-9.063-32.745-42.978-31.868c-33.915,0.877-86.833,23.682-89.757,75.138c0,0,5.255,23.39,21.924,38.3l38.304-31.576
		l20.174,22.22l-40.051,30.406l48.821,51.872c0,0,15.203,8.94,46.194-13.279c0,0-18.712,56.957-22.513,69.995l19.297,33.607
		c0,0,2.339,11.81-10.233,8.191l-20.173-29.518L214.925,359.027z"/>
</g>
</svg>
