<?xml version="1.0" encoding="utf-8"?>
<!-- Generator: Adobe Illustrator 16.0.0, SVG Export Plug-In . SVG Version: 6.00 Build 0)  -->
<!DOCTYPE svg PUBLIC "-//W3C//DTD SVG 1.1//EN" "http://www.w3.org/Graphics/SVG/1.1/DTD/svg11.dtd">
<svg version="1.1" id="Capa_1" xmlns="http://www.w3.org/2000/svg" xmlns:xlink="http://www.w3.org/1999/xlink" x="0px" y="0px"
	 width="512px" height="512px" viewBox="0 0 512 512" enable-background="new 0 0 512 512" xml:space="preserve">
<g>
	<path d="M468.677,76.327H43.323c-14.1,0-25.6,11.5-25.6,25.6v267.816c0,14.099,11.5,25.6,25.6,25.6h425.354
		c14.099,0,25.6-11.501,25.6-25.6V101.927C494.277,87.828,482.776,76.327,468.677,76.327z M256,83.968
		c3.387,0,6.145,2.757,6.145,6.144s-2.758,6.144-6.145,6.144s-6.145-2.757-6.145-6.144S252.614,83.968,256,83.968z M482.461,336.266
		H29.538V103.896h452.923V336.266z"/>
	<path d="M0,401.251c0,15.517,17.645,28.198,39.385,28.198h12.288v1.576c0,2.599,1.732,4.647,3.938,4.647h14.729
		c2.206,0,3.938-2.049,3.938-4.647v-1.576h363.441v1.576c0,2.599,1.732,4.647,3.938,4.647h14.729c2.206,0,3.939-2.049,3.939-4.647
		v-1.576h12.287c21.74,0,39.385-12.682,39.385-28.198H0z M297.354,414.563h-82.707v-8.9h82.707V414.563z"/>
	<polygon points="305.96,229.958 260.513,198.401 265.7,253.486 281.299,233.968 	"/>
</g>
</svg>
