<?xml version="1.0" encoding="utf-8"?>
<!-- Generator: Adobe Illustrator 26.0.2, SVG Export Plug-In . SVG Version: 6.00 Build 0)  -->
<svg version="1.1" id="Capa_1" xmlns="http://www.w3.org/2000/svg" xmlns:xlink="http://www.w3.org/1999/xlink" x="0px" y="0px"
	 viewBox="0 0 512 512" style="enable-background:new 0 0 512 512;" xml:space="preserve">
<g>
	<path d="M363.1,178.1H111c-2.4,0-4.3-1.9-4.3-4.3V88c0-2.4,1.9-4.3,4.3-4.3h252c2.4,0,4.3,1.9,4.3,4.3v85.7
		C367.4,176.1,365.4,178.1,363.1,178.1z"/>
	<path d="M269.5,276.8l0,147.2c0,2.4-1.9,4.3-4.3,4.3l-56.3,0c-2.4,0-4.3-1.9-4.3-4.3l0-147.2c0-2.4,1.9-4.3,4.3-4.3l56.3,0
		C267.6,272.5,269.5,274.4,269.5,276.8z"/>
	<g>
		<path d="M244.2,301.9h-13.5v-50.7c0-8.3,6.7-15,15-15h144.6c0.8,0,1.5-0.7,1.5-1.5v-95.3c0-0.8-0.7-1.5-1.5-1.5h-40.3v-13.5h40.3
			c8.3,0,15,6.7,15,15v95.3c0,8.3-6.7,15-15,15H245.7c-0.8,0-1.5,0.7-1.5,1.5V301.9z"/>
	</g>
</g>
</svg>
