<?xml version="1.0" encoding="utf-8"?>
<!-- Generator: Adobe Illustrator 16.0.0, SVG Export Plug-In . SVG Version: 6.00 Build 0)  -->
<!DOCTYPE svg PUBLIC "-//W3C//DTD SVG 1.1//EN" "http://www.w3.org/Graphics/SVG/1.1/DTD/svg11.dtd">
<svg version="1.1" id="Capa_1" xmlns="http://www.w3.org/2000/svg" xmlns:xlink="http://www.w3.org/1999/xlink" x="0px" y="0px"
	 width="511.938px" height="512px" viewBox="0 0 511.938 512" enable-background="new 0 0 511.938 512" xml:space="preserve">
<g>
	<polygon points="-0.001,167.932 57.657,91.9 57.657,255.999 -0.001,283.243 	"/>
	<path d="M69.06,91.9v166.635l150.793,17.738l148.893-29.145l72.23,11.406v-53.856L69.06,91.9z M214.153,211.648l-72.863-10.77
		V163.69l72.863,19.446V211.648z M214.153,175.218l-72.863-19.325v-12.037l72.863,19.835V175.218z"/>
	<polygon points="9.504,289.579 57.657,265.504 195.778,277.541 116.58,294.649 	"/>
	<polygon points="88.702,307.954 363.045,254.732 363.045,420.1 214.153,402.358 214.153,326.328 177.722,330.13 177.722,399.191 
		88.702,390.319 	"/>
	<path d="M371.914,254.732V420.1l140.025-15.841V280.076L371.914,254.732z M435.274,404.259l-48.152,6.168l3.168-115.777l44.984,3.8
		V404.259z M478.729,401.684l-32.145,2.538V299.33l32.145,4.511V401.684z M503.824,396.892l-16.918,3.101v-95.023l16.918,2.256
		V396.892z"/>
</g>
</svg>
