<?xml version="1.0" encoding="utf-8"?>
<!-- Generator: Adobe Illustrator 16.0.0, SVG Export Plug-In . SVG Version: 6.00 Build 0)  -->
<!DOCTYPE svg PUBLIC "-//W3C//DTD SVG 1.1//EN" "http://www.w3.org/Graphics/SVG/1.1/DTD/svg11.dtd">
<svg version="1.1" id="Capa_1" xmlns="http://www.w3.org/2000/svg" xmlns:xlink="http://www.w3.org/1999/xlink" x="0px" y="0px"
	 width="512px" height="512px" viewBox="0 0 512 512" enable-background="new 0 0 512 512" xml:space="preserve">
<g>
	<path fill-rule="evenodd" clip-rule="evenodd" d="M170.815,165.516c2.841,0,7.426-0.018,12.01,0.011
		c1.428,0.009,2.858,0.113,4.284,0.226c1.375,0.108,2.25,1.871,1.586,3.269c-0.983,2.068-2.028,4.105-3.063,6.147
		c-4.418,8.709-8.116,17.703-10.729,27.125c-2.002,7.219-3.267,14.535-2.841,22.061c0.434,7.672,2.717,14.641,8.181,20.26
		c5.839,6.005,12.947,9.142,21.384,9.432c4.991,0.171,9.607-0.898,14.135-2.882c3.96-1.734,7.688-3.842,11.211-6.312
		c5.864-4.109,11.663-8.312,17.518-12.435c4.957-3.49,10.314-6.188,16.192-7.748c6.21-1.647,12.398-1.785,18.628,0.12
		c5.531,1.691,10.665,4.106,15.437,7.37c8.589,5.873,16.002,13.071,22.596,21.009c6.423,7.732,13.47,14.846,20.339,22.142
		c12.964,13.766,25.958,27.507,37.989,42.109c3.455,4.194,6.634,8.626,9.802,13.046c2.268,3.164,2.855,6.812,2.4,10.649
		c-0.546,4.612-4.115,8.676-8.683,9.512c-6.669,1.219-13.15,0.439-19.253-2.568c-1.501-0.74-2.828-1.939-4.048-3.121
		c-3.701-3.591-7.31-7.275-10.955-10.924c-14.173-14.188-28.34-28.382-42.532-42.55c-1.412-1.411-2.88-2.811-4.502-3.959
		c-4.508-3.188-11.077-0.235-11.869,5.278c-0.255,1.773,0.174,3.486,1.256,4.874c1.402,1.799,2.935,3.513,4.546,5.13
		c10.106,10.151,20.251,20.267,30.384,30.393c7.499,7.493,14.951,15.034,22.529,22.447c2.187,2.141,3.338,4.56,3.58,7.548
		c0.209,2.577,0.437,5.139-0.184,7.692c-0.349,1.437-0.98,2.77-2.175,3.604c-2.879,2.011-6.089,3.319-9.647,2.762
		c-4.576-0.718-8.766-2.293-12.287-5.606c-9.39-8.835-18.932-17.504-28.405-26.248c-7.998-7.385-15.972-14.796-23.989-22.158
		c-1.043-0.957-2.216-1.815-3.441-2.522c-3.18-1.836-6.836-1.144-9.316,1.645c-2.182,2.452-2.384,7.074-0.223,9.559
		c1.688,1.938,3.563,3.728,5.456,5.474c9.471,8.745,18.987,17.441,28.466,26.18c6.739,6.214,13.455,12.452,20.155,18.709
		c1.377,1.284,1.807,2.854,0.978,4.664c-0.477,1.04-0.818,2.146-1.341,3.161c-1.842,3.581-4.8,5.729-8.798,6.052
		c-5.017,0.403-9.696-0.734-13.588-4.113c-1.945-1.688-3.724-3.567-5.572-5.365c-9.446-9.187-18.886-18.382-28.346-27.555
		c-1.231-1.193-2.497-2.371-3.867-3.396c-3.218-2.404-7.258-1.952-10.096,1.021c-2.183,2.287-2.485,6.985-0.416,9.569
		c1.425,1.779,3.09,3.376,4.722,4.979c4.087,4.015,8.231,7.972,12.319,11.987c0.81,0.796,1.48,1.734,2.2,2.62
		c0.434,0.533,0.066,1.991-0.54,2.21c-7.984,2.878-16.221,3.342-24.543,2.268c-1.907-0.247-3.821-1.226-5.501-2.246
		c-2.191-1.332-4.211-2.969-6.204-4.6c-16.629-13.604-33.29-27.171-49.834-40.878c-18.749-15.533-37.374-31.217-56.083-46.8
		c-5.47-4.555-5.954-5.058-3.945-12.424c5.795-21.252,11.448-42.542,17.143-63.822c3.847-14.379,7.667-28.766,11.504-43.148
		c0.517-1.936,1.175-3.842,1.575-5.801c0.74-3.628,2.257-5.545,7.387-5.574C157.615,165.044,163.344,165.326,170.815,165.516z"/>
	<path fill-rule="evenodd" clip-rule="evenodd" d="M357.387,171.396c-0.099-8.936,4.182-14.999,11.647-18.758
		c6.122-3.083,12.505-5.653,18.791-8.406c11.525-5.047,23.061-10.07,34.601-15.081c2.093-0.909,4.22-1.742,6.351-2.561
		c9.479-3.644,20.534,1.813,24.704,10.207c0.508,1.024,0.977,2.069,1.436,3.116c7.464,17.026,14.921,34.056,22.381,51.083
		c9.066,20.69,18.142,41.376,27.196,62.072c2.063,4.714,3.94,9.513,6.111,14.177c3.767,8.099-0.721,18.229-5.974,22.528
		c-2.46,2.013-5.242,3.452-8.135,4.715c-12.84,5.607-25.68,11.221-38.519,16.835c-3.931,1.718-7.854,3.456-11.788,5.165
		c-1.835,0.797-3.655,1.647-5.542,2.305c-10.855,3.784-21.388-2.097-25.423-10.401c-1.624-3.341-3.05-6.779-4.541-10.185
		c-11.814-26.982-23.626-53.966-35.433-80.953c-5.271-12.049-10.468-24.132-15.832-36.14
		C357.976,177.886,357.36,174.603,357.387,171.396z"/>
	<path fill-rule="evenodd" clip-rule="evenodd" d="M81.172,308.147c-2.532-0.4-5.12-0.586-7.586-1.238
		c-19.085-5.046-38.146-10.187-57.216-15.288c-7.461-1.996-12.524-6.55-15.213-13.841c-1.451-3.933-1.469-7.848-0.433-11.8
		c2.174-8.302,4.436-16.579,6.658-24.868c9.564-35.669,19.125-71.34,28.696-107.008c0.444-1.654,0.899-3.313,1.477-4.923
		c3.466-9.666,14.646-15.354,24.375-12.785c11.076,2.926,22.166,5.795,33.233,8.752c8.003,2.139,15.988,4.348,23.962,6.595
		c2.471,0.697,4.966,1.425,7.299,2.475c9.392,4.225,13.094,15.602,11.1,22.947c-2.401,8.846-4.649,17.733-7,26.592
		c-6.459,24.336-12.908,48.675-19.422,72.996c-2.889,10.783-5.917,21.529-8.9,32.285c-0.535,1.929-1.096,3.854-1.749,5.744
		C97.777,302.532,89.821,308.375,81.172,308.147z"/>
	<path fill-rule="evenodd" clip-rule="evenodd" d="M210.138,164.655c10.965-1.008,21.799-2.016,32.636-2.997
		c11.791-1.068,23.451-0.004,35.058,2.116c15.776,2.883,31.135,7.404,46.519,11.821c7.978,2.29,15.905,4.755,23.605,7.066
		c2.436,2.221,3.209,5.06,4.352,7.642c6.835,15.444,13.576,30.931,20.36,46.398c8.972,20.452,17.982,40.887,26.916,61.356
		c3.415,7.828,3.426,6.714-3.286,11.591c-1.143,0.83-2.433,1.486-3.728,2.059c-0.42,0.188-1.162-0.004-1.598-0.276
		c-0.712-0.446-1.39-1.024-1.919-1.679c-14.971-18.504-31.368-35.717-47.748-52.949c-3.746-3.94-7.369-8.006-10.893-12.147
		c-6.694-7.87-13.731-15.381-21.781-21.898c-4.91-3.977-10.065-7.573-15.722-10.423c-4.88-2.458-9.946-4.256-15.353-5.285
		c-7.26-1.38-14.229-0.475-21.152,1.721c-5.22,1.656-10.099,4.037-14.676,6.998c-4.326,2.798-8.554,5.751-12.784,8.695
		c-3.526,2.454-6.921,5.101-10.509,7.458c-2.621,1.722-5.452,3.128-8.206,4.646c-2.586,1.424-5.419,1.725-8.311,1.792
		c-7.123,0.167-12.729-4.835-14.162-11.435c-0.6-2.764-0.674-5.684-0.654-8.531c0.034-4.907,1.104-9.69,2.692-14.302
		c4.588-13.323,10.733-25.9,18.548-37.642C208.65,165.991,209.133,165.649,210.138,164.655z"/>
</g>
</svg>
