<?xml version="1.0" encoding="utf-8"?>
<!-- Generator: Adobe Illustrator 26.0.2, SVG Export Plug-In . SVG Version: 6.00 Build 0)  -->
<svg version="1.1" id="Capa_1" xmlns="http://www.w3.org/2000/svg" xmlns:xlink="http://www.w3.org/1999/xlink" x="0px" y="0px"
	 viewBox="0 0 512 512" style="enable-background:new 0 0 512 512;" xml:space="preserve">
<g>
	<path d="M467.7,420c-141.2,0-282.3,0-423.4,0c0-90.5,0-180.9,0-271.6c4.9,0,9.7,0,14.6,0c0-8.3,0-16.4,0-24.8c1.1,0,1.9,0,2.8,0
		c63.5,0,127,0,190.5,0c1.6,0,3.3,0.4,4.7-0.1c3.5-1.3,7.4-0.8,10.8-2c2.7-0.9,5.6-0.5,7.9-1.5c3.2-1.4,6.6-0.6,9.4-1.8
		c3-1.3,5.9-0.9,8.8-1.4c0.6-0.1,1.2-0.6,1.8-0.9c0.5-0.2,1-0.5,1.6-0.5c1.6-0.1,3.2,0,4.8-0.2c0.8-0.1,1.5-0.7,2.3-1
		c0.5-0.2,1.1-0.4,1.7-0.4c1.8-0.1,3.9,0.3,5.5-0.4c3-1.3,6.3-0.7,9.1-1.7c2.9-1.1,6.1-0.6,8.7-1.7c3.3-1.4,6.8-0.6,9.7-1.8
		c2.9-1.2,6.1-0.3,8.5-1.6c3.2-1.7,6.8-0.3,9.5-1.7c2.8-1.4,5.9-0.5,8.4-1.7c2.8-1.3,5.8-0.4,8.3-1.5c3.3-1.4,6.9-0.6,9.9-1.9
		c2.9-1.2,5.9-0.5,8.5-1.6c3-1.2,6.4-0.4,8.9-1.7c3-1.6,6-0.9,8.9-1.4c0.3-0.1,0.8,0.1,1-0.1c1.5-2.1,3.7-1,5.6-1.5
		c1.4-0.3,2.6-0.9,4-1.1c1.9-0.3,3.9-0.4,6-0.6c0,10.6,0,20.9,0,31.4c8.9,0,17.6,0,26.6,0c0,8.3,0,16.4,0,24.8c5,0,9.7,0,14.6,0
		C467.7,239,467.7,329.4,467.7,420z M90.4,138.3c-5.8,0-11.3,0-16.7,0c-1.8,0-1.4,1.4-1.4,2.4c0,84,0,168.1,0,252.1
		c0,0.7,0.1,1.4,0.1,2.1c59.1,0,117.9,0,176.7,0c0-85.6,0-171,0-256.5c-1-0.1-1.8-0.3-2.7-0.3c-36,0-72,0-108.1,0c-2.6,0-3,0.4-3,3
		c0,26,0,51.9,0,77.9c0,0.8-0.4,2.3-0.7,2.3c-1,0-2.2,0.4-3-1.1c-0.5-1-1.9-1.5-3-2.3c-0.6-0.4-1.2-0.9-1.9-1.3
		c-0.9-0.6-1.8-1.3-2.7-1.9c-1.2-0.8-2.6-1.4-3.8-2.2c-1.3-0.9-2.5-1.9-3.8-2.9c-0.3-0.2-0.8-0.2-1-0.5c-1.4-1.7-3.8-1.7-5.1-0.1
		c-0.7,0.8-1.6,2-2.5,2.1c-2.7,0.4-3.8,2.9-6,3.9c-1.4,0.6-2.6,1.9-3.8,2.8c-0.8,0.6-1.5,1.1-2.3,1.6c-1.2,0.7-2.4,1.4-3.6,2.2
		c-0.4,0.3-0.7,0.7-1,1.1c-0.2-0.6-0.5-1.2-0.6-1.8c-0.1-0.6,0-1.3,0-2c0-26,0-51.9,0-77.9C90.4,140.3,90.4,139.4,90.4,138.3z
		 M262.9,137.7c0,84.9,0,170.2,0,255.7c0.8,0.1,1.5,0.2,2.2,0.1c2.2-0.2,4.3-0.2,6.7-1.2c2.8-1.3,6.3-0.5,9.5-1.7
		c2.7-1.1,5.9-0.2,8.9-1.6c2.8-1.2,6.1-0.6,9.2-1.8c2.8-1.1,6.1-0.1,9.1-1.6c2.4-1.2,5.4-0.1,8.2-1.6c2.5-1.3,5.9-0.3,8.9-1.7
		c2.7-1.3,6.2-0.3,9.3-1.6c2.6-1.1,5.8-0.4,8.7-1.6c2.9-1.2,6.3-0.4,9.5-1.8c2.6-1.1,5.8-0.2,8.7-1.6c1.5-0.8,3.6-0.3,5.5-0.4
		c0.5,0,1-0.2,1.5-0.4c0.9-0.3,1.7-0.9,2.6-1c1.8-0.2,3.6-0.1,5.4-0.2c0.5,0,1.3-0.1,1.5-0.4c0.6-1.4,1.9-1,2.9-1.1
		c1.7-0.2,3.8,0.3,5.1-0.5c1.9-1.2,3.7-0.9,5.6-1.1c1-0.1,2.3,0.2,2.9-0.3c1.9-1.7,4.2-1.2,6.4-1.4c1.2-0.2,2.8,0.2,3.5-0.5
		c1.4-1.3,3-1.2,4.6-1.2c1.5,0,2.9-0.2,3.5-1.8c0.3-0.9,0.5-1.9,0.5-2.8c0-83.1,0-166.2,0-249.3c0-0.5,0.1-1,0-1.4
		c-0.5-1-0.9-2.2-1.7-2.7c-0.6-0.3-1.8,0.3-2.7,0.6c-0.4,0.1-0.6,0.5-1,0.6c-3.2,0.4-6.4,0.4-9.5,1.7c-2.5,1-5.6,0.4-8.4,1.5
		c-2.7,1.2-5.9,0.1-9,1.7c-2.5,1.3-5.8,0.2-8.8,1.6c-2.7,1.3-6.2,0.3-9.3,1.6c-2.6,1.1-5.8,0.3-8.7,1.6c-2.7,1.2-5.9,0.6-8.9,1.8
		c-3,1.2-6.6,0.1-9.9,1.8c-1.3,0.7-3.3,0.2-4.9,0.3c-0.5,0-1,0.2-1.5,0.4c-0.8,0.3-1.5,0.9-2.3,1c-1.8,0.2-3.6,0.1-5.4,0.2
		c-0.5,0-1.3,0-1.5,0.3c-1,1.5-2.5,1.1-3.9,1.2c-1.5,0.1-3.4-0.2-4.5,0.5c-1.8,1.3-3.7,0.9-5.6,1.1c-1,0.1-2.1,0.1-3.1,0.4
		c-1.4,0.3-2.8,1-4.2,1.2c-1.6,0.3-3.3,0.2-4.9,0.5c-1.1,0.2-2.1,1-3.2,1.2c-2.4,0.4-4.8,0.1-7.2,1.2c-2.8,1.3-6.1,0.6-9.2,1.8
		C270.5,136,266.4,134.7,262.9,137.7z M426.6,378.4c-1.3,0.1-2.2,0.1-3.1,0.2c-1.1,0.1-2.5-0.2-3.1,0.4c-1.5,1.5-3.3,1.1-5,1.2
		c-1.2,0.1-2.7-0.2-3.5,0.4c-1.7,1.4-3.6,1-5.5,1.3c-1.7,0.2-3.7-0.6-5.1,1.4c-0.2,0.2-0.9,0.1-1.3,0.2c-1.7,0.1-3.3,0.1-5,0.2
		c-0.5,0-1.2,0-1.3,0.2c-0.8,1.6-2.2,1.1-3.5,1.2c-1.6,0.2-3.6-0.4-4.7,0.4c-2.4,1.7-5,1-7.4,1.3c-0.8,0.1-1.8,0-2.3,0.4
		c-1.5,1.5-3.4,1-5.2,1.3c-1.2,0.1-2.4,0.1-3.5,0.4c-1.5,0.3-3,1-4.5,1.3c-1.6,0.3-3.5-0.3-4.7,0.4c-2.4,1.6-4.9,1-7.4,1.3
		c-0.5,0.1-1.3,0-1.5,0.3c-0.9,1.7-2.5,1.1-3.8,1.2c-1.2,0.1-2.5,0-3.8,0.2c-0.4,0-0.8,0.5-1.1,0.7c0.4,0.3,0.8,0.7,1.2,0.7
		c1,0.1,2.1,0.2,3.2,0.2c30.7,0,61.3,0,92,0c1,0,1.9-0.2,2.8-0.3c0-85.6,0-170.9,0-256.5c-4.3,0-8.5,0-12.9,0
		C426.6,218.4,426.6,298.3,426.6,378.4z"/>
	<path d="M279.3,353.8c1-0.1,1.8-0.1,2.6-0.1c1.1-0.1,2.1,0.1,2.9-1.1c0.4-0.6,1.8-0.4,2.8-0.6c1.2-0.2,2.7,0.3,3.5-1.2
		c0-0.1,0.2-0.1,0.4-0.1c3-0.7,6.1-1.3,9.1-2c0.8-0.2,1.6-0.6,2.4-1c0.2-0.1,0.5-0.3,0.7-0.3c2.9-0.7,5.7-1.3,8.6-2
		c1.2-0.3,2.6,0.3,3.6-1.3c0.4-0.6,2.3-0.2,3.4-0.4c0.9-0.2,1.8-0.7,2.7-1.1c0.2-0.1,0.3-0.3,0.5-0.3c2.6-0.6,5.3-1.2,7.9-1.7
		c1.3-0.3,2.7,0.1,3.7-1.3c0.3-0.4,1.5-0.3,2.3-0.4c1.4-0.3,3.1,0.3,4-1.4c0-0.1,0.2-0.1,0.4-0.2c2.9-0.6,5.9-1.1,8.8-1.8
		c0.9-0.2,1.6-0.8,2.4-1.1c0.5-0.2,1.1-0.3,1.7-0.4c1.8-0.3,3.9,0.6,5.1-1.5c0,0,0.1,0,0.2-0.1c2.9-0.6,5.9-1.1,8.8-1.8
		c0.8-0.2,1.6-0.7,2.4-1c0.3-0.2,0.7-0.3,1.1-0.4c2.1-0.5,4.2-0.2,6.2-1.6c1.5-1,3.9-0.4,5.9-1.6c1.8-1.1,4.5,0.4,6-2.3
		c0.2,0.1,0.3,0.3,0.5,0.4c0.7,2.9,1.3,5.8,2.1,8.7c0.3,1.2,1,2.3,1.4,3.6c0.2,0.6-0.1,1.4-0.1,2.2c-0.9,0.1-1.7,0.1-2.4,0.3
		c-1,0.3-2,0.7-3,1.1c-0.2,0.1-0.4,0.2-0.6,0.2c-2.9,0.7-5.9,1.4-8.8,2c-1.3,0.3-2.8-0.4-3.6,1.4c-0.1,0.2-0.7,0.2-1.1,0.2
		c-1.6,0.2-3.4-0.3-4.6,1.4c-0.2,0.3-1,0.2-1.5,0.3c-1.6,0.3-3.4-0.4-4.7,1.4c-0.3,0.4-1.4,0.2-2.1,0.3c-1.5,0.2-3.2-0.3-4.3,1.4
		c-0.2,0.3-0.9,0.2-1.3,0.3c-1.8,0.3-3.9-0.2-5.3,1.6c0,0-0.1,0-0.2,0.1c-3,0.6-6,1.1-9,1.8c-0.8,0.2-1.5,0.8-2.2,1.1
		c-0.6,0.2-1.4,0.3-2,0.5c-1.6,0.3-3.5-0.5-4.6,1.4c-0.1,0.2-0.9,0.1-1.3,0.2c-1.4,0.3-3-0.4-4.1,1.3c-0.2,0.3-1.1,0.2-1.7,0.3
		c-1.7,0.2-3.5-0.3-4.9,1.4c-0.4,0.5-1.6,0.2-2.5,0.4c-1.3,0.2-2.9-0.2-3.7,1.4c0,0.1-0.2,0.1-0.3,0.2c-2.7,0.6-5.5,1.2-8.2,1.7
		c-1.2,0.2-2.3-0.1-3.3,1.2c-0.4,0.6-2.1,0.3-3.2,0.4c-1.2,0.1-2.6-0.4-3.2,1.3c0,0.1-0.2,0.1-0.3,0.2c-2.7,0.6-5.5,1.1-8.2,1.8
		c-1.1,0.3-2.1,0.8-3.1,1.2c-0.3,0.1-0.8,0.3-0.9,0.2c-0.8-1-1.9-2-2.2-3.1c-0.5-1.7-0.2-3.5-1.4-5.3
		C278.6,358.4,279.3,356,279.3,353.8z"/>
	<path d="M285,329.7c-2.1-0.3-2.6-1.7-2.6-3.7c0-0.7-0.6-1.4-1-2.1c-0.1-0.3-0.4-0.5-0.4-0.8c-0.1-1.9-0.3-3.8-0.3-5.7
		c0-1.1,0.5-1.6,1.7-1.7c1.5-0.1,3,0.3,4.2-1.4c0.4-0.6,2.1-0.2,3.2-0.3c1-0.1,2.2,0.3,2.9-1.2c0.2-0.4,1.3-0.4,2-0.4
		c1.6-0.2,3.4,0.2,4.5-1.4c0,0,0.1-0.1,0.2-0.1c3,0.6,5.3-1.8,8.1-1.9c1.3,0,2.6,0.1,3.5-1.2c0.3-0.5,1.5-0.3,2.3-0.4
		c1.5-0.3,3.2,0.4,4.3-1.3c0.2-0.3,1-0.2,1.5-0.2c1.3-0.2,2.7,0.2,3.9-1.3c0.5-0.7,2.4-0.2,3.6-0.5c0.8-0.2,1.6-0.7,2.4-1.1
		c0.6-0.2,1.2-0.4,1.8-0.5c1.7-0.2,3.5,0.2,4.7-1.4c0,0,0.1-0.1,0.2-0.1c2.9-0.6,5.7-1.2,8.6-1.9c1.1-0.3,2-0.9,3.1-1.2
		c0.9-0.3,1.8-0.3,2.7-0.5c1.3-0.2,2.8,0.3,3.8-1.2c0.1-0.2,0.7-0.2,1.1-0.3c1.6-0.3,3.4,0.3,4.7-1.4c0.3-0.5,1.6-0.2,2.5-0.3
		c1.3-0.2,2.9,0.5,3.5-1.3c0-0.1,0.2-0.1,0.4-0.1c2.8-0.6,5.6-1.2,8.5-1.8c1-0.2,2.3,0.2,2.9-1.1c0-0.1,0.2-0.2,0.3-0.2
		c3.2-0.7,6.4-1.4,9.5-2.2c1-0.2,2-0.7,3.1-0.9c0.4-0.1,1.2,0.4,1.3,0.7c0.2,3,2.7,5.3,2.1,8.5c-0.1,0.4,0.5,1,0.7,1.5
		c0.2,0.8,0.5,1.6,0.4,2.3c-0.1,0.5-0.9,1-1.5,1.2c-0.7,0.2-1.5,0-2.2,0.2c-0.9,0.2-1.7,0.7-2.6,1c-0.4,0.2-0.8,0.3-1.3,0.4
		c-1.6,0.3-3.3-0.2-4.7,1.4c-0.6,0.6-2.3,0.3-3.4,0.4c-0.9,0.1-2-0.3-2.4,1.1c-0.1,0.3-1.3,0.4-2,0.5c-1.6,0.3-3.5-0.4-4.7,1.4
		c0,0-0.1,0.1-0.2,0.1c-3.1-0.6-5.5,1.8-8.4,2c-1,0-2.1,0.8-3.1,1.2c-0.2,0.1-0.4,0.2-0.6,0.2c-3.2,0.7-6.4,1.3-9.5,2
		c-0.9,0.2-1.8,0.8-2.7,1.2c-0.3,0.1-0.6,0.2-0.9,0.3c-1.7,0.3-3.6-0.5-4.9,1.4c-0.2,0.4-1.3,0.2-1.9,0.2c-1.4,0.2-3.1-0.3-4.1,1.3
		c-0.1,0.2-0.6,0.1-0.9,0.2c-2,0.3-3.9,0.4-5.9,1.5c-2.6,1.4-5.9,1.4-8.9,2.2c-0.8,0.2-1.6,0.7-2.4,1c-0.8,0.3-1.6,0.4-2.5,0.5
		c-1.4,0.2-3.1-0.3-4.1,1.4c-0.1,0.2-0.6,0.1-0.9,0.2c-1.7,0.3-3.6-0.5-4.8,1.4c-0.2,0.3-1.1,0.2-1.7,0.3c-1.5,0.2-3.4-0.4-4.4,1.4
		c0,0-0.1,0.1-0.2,0.1c-2.9,0.6-5.9,1.3-8.8,1.9C287,329.1,286,329.4,285,329.7z"/>
	<path d="M284.6,256.9c-0.7-2.4-1.4-5.2-2.2-7.9c-0.3-1-0.8-1.8-1.1-2.8c-0.2-0.8-0.3-1.8-0.2-2.6c0.1-0.3,1-0.6,1.6-0.7
		c3-0.7,6.3-0.7,8.9-2.1c2-1,4-1,5.9-1.6c2.5-0.8,4.9-1.8,7.3-2.6c0.9-0.3,1.9-0.3,2.9-0.5c1.1-0.2,2.5,0.3,3-1.3
		c0-0.1,0.2-0.2,0.3-0.2c2.9,0.6,5-1.6,7.7-1.8c1.4-0.1,3,0.3,3.9-1.3c0.1-0.2,0.7-0.2,1.1-0.2c1.9-0.3,3.6-0.4,5.5-1.4
		c2.6-1.3,5.8-1.5,8.7-2.2c0.9-0.2,1.7-0.7,2.5-1.1c0.2-0.1,0.3-0.2,0.5-0.3c3-0.6,6.1-1.2,9.1-1.9c0.8-0.2,1.5-0.8,2.2-1.1
		c0.7-0.3,1.5-0.3,2.3-0.5c1.4-0.4,2.8-0.9,4.1-1.3c0.1,0,0.2-0.1,0.4-0.2c3-0.6,6-1.2,8.9-2c0.8-0.2,1.5-0.7,2.3-1.1
		c0.2-0.1,0.3-0.3,0.5-0.3c2.8-0.6,5.6-1.2,8.4-1.8c1-0.2,2.2,0.2,2.9-1.2c0.2-0.4,1.4-0.3,2.2-0.4c1.5-0.3,3.4,0.5,4.4-1.4
		c0.1-0.2,0.7-0.1,1.3-0.1c0.7,2.9,1.2,5.8,2.2,8.6c0.5,1.3,1.5,2.3,1.3,3.9c-0.1,1.4-0.7,2-2.1,2.3c-3.1,0.5-6.3,0.8-9.1,2.1
		c-2,1-4.2,0.7-5.9,1.6c-2.2,1.3-4.8,0.6-6.6,1.7c-1.8,1.1-4.2,0.5-5.1,1.5c-2.4,2.4-6.1,0.1-8.1,2.8c-2.6-0.3-4.8,1.1-7.2,1.8
		c-1.6,0.4-3.4-0.1-4.7,1.5c-0.4,0.5-1.7,0.2-2.5,0.4c-1.2,0.3-2.4,0.8-3.6,1.2c-0.6,0.2-1.3,0.2-1.9,0.3c-1.2,0.2-2.5-0.2-3.5,1.2
		c-0.4,0.6-2.2,0.3-3.4,0.5c-1.1,0.2-2.5-0.4-2.9,1.3c0,0.1-0.2,0.2-0.3,0.2c-2.5,0.6-5.1,1.2-7.6,1.7c-1.4,0.3-2.9-0.2-3.9,1.4
		c-0.2,0.3-1.1,0.3-1.7,0.4c-1.7,0.2-3.5-0.2-4.7,1.5c0,0-0.1,0.1-0.2,0.1c-2.6,0.6-5.2,1.2-7.8,1.7c-1.3,0.3-3-0.5-3.7,1.4
		c0,0-0.1,0.1-0.2,0.1c-3-0.7-5.4,1.8-8.3,1.9C287.4,256.1,286.1,256.6,284.6,256.9z"/>
	<path d="M389.7,249.3c1.2,3.4,2.2,6.5,3.4,9.4c1.1,2.7-0.3,5.2-3.1,5.5c-1.1,0.1-2.8-0.3-3.3,0.3c-1.9,2.3-5.3,0.4-7.1,2.7
		c-0.2,0.2-0.6,0.2-0.9,0.2c-1.9,0.3-3.8,0.5-5.7,1.4c-2.7,1.4-6,1.5-9.1,2.2c-0.7,0.2-1.3,0.6-2,0.9c-0.9,0.3-1.7,0.4-2.6,0.6
		c-1.4,0.3-3.1-0.5-4,1.4c-0.1,0.3-1,0.2-1.5,0.2c-1.4,0.2-3.1-0.5-3.9,1.4c0,0.1-0.2,0.1-0.4,0.1c-3,0.6-6,1.2-9,1.9
		c-0.7,0.2-1.3,0.6-2,0.9c-0.5,0.2-0.9,0.5-1.4,0.5c-1.9,0.3-3.8,0.5-5.7,1.5c-2.6,1.3-5.8,1.4-8.7,2c-0.9,0.2-2-0.2-2.5,1.2
		c-0.1,0.3-1.2,0.3-1.8,0.4c-1.6,0.3-3.6-0.6-4.7,1.5c0,0-0.1,0-0.2,0.1c-2.8,0.6-5.6,1.1-8.4,1.8c-1,0.2-1.9,0.8-2.9,1.2
		c-0.8,0.3-1.7,0.3-2.5,0.5c-1.4,0.3-3.1-0.2-4.1,1.4c0,0.1-0.1,0.1-0.2,0.1c-3.6,0.7-7.2,1.5-11,2.2c-0.8-3.3-1.5-6.2-2.2-9.1
		c-0.2-0.7-1-1.3-1.2-2c-0.2-0.6-0.1-1.4-0.2-2.3c1.2-0.1,2.2-0.1,3.2-0.4c2.6-0.8,5.1-1.8,7.6-2.7c0.8-0.3,1.7-0.3,2.5-0.4
		c1.2-0.3,2.8,0.5,3.6-1.3c0.1-0.4,1.5-0.2,2.3-0.3c1.1-0.1,2.4,0.3,3.1-1.1c0.1-0.1,0.3-0.2,0.5-0.3c3-0.6,6-1.2,9-1.9
		c1-0.2,2-0.7,3-1.1c0.3-0.1,0.6-0.3,0.9-0.4c1.8-0.2,3.6-0.6,5.3-1.4c2.7-1.2,5.9-1.4,8.8-2.1c0.7-0.2,1.4-0.8,2.1-1
		c1.1-0.3,2.3-0.4,3.4-0.6c1.1-0.2,2.5,0.4,3-1.2c0-0.1,0.3-0.2,0.5-0.2c3-0.6,6-1.2,9.1-1.8c0.7-0.2,1.3-0.6,2-0.9
		c0.5-0.2,0.9-0.5,1.4-0.6c1.9-0.5,3.7-0.3,5.6-1.5c2.2-1.3,5.1-1.4,7.8-1.9c1.3-0.3,2.6,0.2,3.6-1.3c0.4-0.6,2.1-0.2,3.2-0.4
		c1-0.2,1.9-0.8,2.9-1.2c0.2-0.1,0.3-0.2,0.5-0.3c2.9-0.6,5.7-1.1,8.6-1.8c0.9-0.2,1.8-0.9,2.7-1.1
		C387.8,249.6,388.8,249.5,389.7,249.3z"/>
	<path d="M389.9,177.4c0.6,2.2,1.3,4.6,2,7c0.2,0.7,0.9,1.4,1,2.1c0.3,1.4,0.5,2.8,0.4,4.2c0,0.3-1.5,0.5-2.3,0.8
		c-1,0.4-1.9,0.8-2.9,1.1c-0.7,0.2-1.4,0.3-2.1,0.4c-1.5,0.3-3.2-0.4-4.2,1.4c-0.2,0.3-1.2,0.2-1.9,0.3c-1.2,0.2-2.6-0.5-3.4,1.2
		c-0.1,0.3-1.2,0.3-1.9,0.4c-1.6,0.2-3.5-0.3-4.7,1.4c0,0-0.1,0-0.2,0.1c-2.9,0.6-5.7,1.2-8.6,2c-0.9,0.2-1.8,0.8-2.7,1.1
		c-0.2,0.1-0.3,0.2-0.5,0.3c-2.9,0.6-5.9,1.2-8.8,1.9c-0.8,0.2-1.4,0.8-2.2,1.1c-0.6,0.2-1.2,0.4-1.8,0.5c-1.7,0.3-3.7-0.6-5,1.5
		c-0.2,0.3-1.1,0.2-1.7,0.2c-1.3,0.1-2.7-0.2-3.5,1.2c-0.1,0.1-0.2,0.1-0.4,0.2c-2.8,0.7-5.6,1.3-8.3,2c-1,0.3-2,0.7-3,1.1
		c-0.2,0.1-0.5,0.3-0.7,0.3c-3.1,0.7-6.2,1.3-9.3,2c-0.8,0.2-1.6,0.7-2.3,1.1c-0.2,0.1-0.3,0.4-0.4,0.4c-2.5-0.3-4.6,1-6.9,1.7
		c-1.5,0.5-3.5-0.3-4.6,1.5c0,0-0.1,0-0.2,0.1c-2.9,0.6-5.9,1.2-8.8,2c-0.9,0.2-1.7,0.6-2.5,1.1c-1.3,0.8-2.7,0.2-3-1.4
		c-0.6-3-1.3-6-2-8.9c0-0.1-0.1-0.3-0.1-0.4c-0.3-0.6-1-1.6-0.9-1.6c0.9-0.8,1.9-1.6,3-2c1.3-0.4,2.8,0,4-1.4
		c0.6-0.7,2.5-0.2,3.8-0.5c0.8-0.2,1.5-0.7,2.2-1c0.6-0.2,1.2-0.4,1.8-0.5c1.7-0.2,3.5,0.2,4.7-1.4c0.2-0.2,0.8-0.1,1.1-0.2
		c1.5-0.2,3.1,0.3,4.3-1.4c0.3-0.4,1.4-0.3,2.1-0.4c1.5-0.3,3.2,0.2,4.2-1.5c0,0,0.1-0.1,0.2-0.1c2.6-0.6,5.2-1.2,7.8-1.8
		c1.3-0.3,2.8,0.3,3.8-1.4c0.3-0.5,2-0.3,3-0.4c1.1-0.1,2.5,0.3,3-1.2c0-0.1,0.2-0.2,0.3-0.2c2.5-0.6,5.1-1.1,7.6-1.7
		c1.3-0.3,2.6-0.9,3.9-1.3c0.2-0.1,0.5-0.2,0.7-0.2c1.8-0.2,3.5-0.7,5.3-1.4c2.8-1.2,6-1.4,9.1-2.1c0.6-0.1,1.2-0.6,1.8-0.8
		c0.6-0.2,1.2-0.5,1.8-0.7c1.7-0.4,3.7,0.6,4.9-1.4c0.3-0.4,1.5-0.1,2.3-0.3c1.3-0.3,2.5-0.8,3.8-1.3c0.1,0,0.1-0.1,0.2-0.1
		c2.7,0.3,4.9-1.3,7.3-1.9c1.6-0.4,3.4,0.3,4.6-1.5c0.3-0.4,1.4-0.2,2.1-0.3C387.2,178,388.3,177.7,389.9,177.4z"/>
	<path d="M390.1,141.7c0.7,2.8,0.8,5.6,2.1,7.8c1,1.8,1.3,3.4,1.3,5.4c-2.9,0.7-6,0.9-8.6,2.1c-1.9,0.9-4.2,0.5-5.6,1.5
		c-2.1,1.4-4.7,0.7-6.4,1.8c-2.1,1.4-4.5,0.7-6.2,1.7c-1.9,1.1-4.3,0.5-5.6,1.5c-2,1.6-4.8,0.4-6,1.6c-2.1,2.1-5.3,0.2-6.9,2.6
		c-0.1,0.1-0.2,0.1-0.4,0.1c-3.3,0.7-6.5,1.3-9.8,2.1c-0.8,0.2-1.6,0.7-2.4,1.1c-0.2,0.1-0.4,0.4-0.6,0.4c-3,0.6-6,1.2-9,1.8
		c-0.7,0.1-1.3,0.7-1.9,1c-0.7,0.3-1.4,0.4-2.2,0.6c-1.2,0.2-2.7-0.5-3.4,1.2c-0.1,0.2-0.6,0.2-0.9,0.3c-2,0.3-3.9,0.5-6,1.4
		c-1.9,0.8-4.2,1.1-6.3,1.9c-1.7,0.7-3.9-0.1-5.4,1.6c-0.5,0.5-1.8,0.2-2.7,0.4c-1.1,0.3-2.1,0.8-3.1,1.1c-0.5,0.2-1,0.2-1.5,0.3
		c-1.4,0.3-2.8-0.2-4,1.3c-0.6,0.7-2.6,0.3-4.1,0.4c-0.1-1.1,0-1.9-0.2-2.7c-0.2-0.9-0.8-1.7-1-2.5c-0.3-0.9-0.4-1.8-0.6-2.6
		c-0.3-1.3,0.3-3-1.3-3.9c0,0,0.3-1.1,0.6-1.3c2.1-0.9,4.4-1.5,6.5-2.3c2.2-0.8,4.6-0.6,6.4-1.6c1.8-1,4.1-0.5,5.4-1.5
		c2.1-1.6,5-0.5,6.3-1.7c2.4-2.2,5.8-0.2,7.8-2.7c0.2-0.2,0.8-0.1,1.1-0.2c1.5-0.2,3.1,0.3,4.3-1.4c0.3-0.4,1.4-0.2,2.1-0.4
		c1.5-0.3,3.3,0.3,4.2-1.5c0,0,0.1-0.1,0.2-0.1c2.7-0.6,5.4-1.2,8.1-1.8c1.2-0.3,2.7,0.4,3.4-1.3c0.1-0.3,1.5-0.2,2.3-0.3
		c1.5-0.2,3.3,0.3,4.2-1.5c0,0,0.1-0.1,0.2-0.1c2.7-0.6,5.5-1.1,8.2-1.8c1-0.2,2-0.8,3-1.2c0.1,0,0.2-0.2,0.3-0.2
		c2.7,0.2,4.9-1.4,7.4-1.9c1.5-0.3,3.3,0.4,4.4-1.4c0.2-0.4,1.3-0.2,1.9-0.3c1.2-0.1,2.3,0.1,3.3-1.2c0.5-0.6,2-0.4,3-0.5
		c1.2-0.2,2.5,0.4,3.2-1.2c0.1-0.3,1-0.3,1.5-0.3c1.7-0.2,3.4-0.1,5-1.3C386.4,141.4,388.3,141.8,390.1,141.7z"/>
</g>
</svg>
