<?xml version="1.0" encoding="utf-8"?>
<!-- Generator: Adobe Illustrator 16.0.0, SVG Export Plug-In . SVG Version: 6.00 Build 0)  -->
<!DOCTYPE svg PUBLIC "-//W3C//DTD SVG 1.1//EN" "http://www.w3.org/Graphics/SVG/1.1/DTD/svg11.dtd">
<svg version="1.1" id="Capa_1" xmlns="http://www.w3.org/2000/svg" xmlns:xlink="http://www.w3.org/1999/xlink" x="0px" y="0px"
	 width="512px" height="512px" viewBox="0 0 512 512" enable-background="new 0 0 512 512" xml:space="preserve">
<g>
	<path d="M367.45,16.74H145.069v99.131H367.45V16.74L367.45,16.74z M375.45,0.74h8v7.999v10.255v104.876c0,4.418-3.582,8-8,8
		H137.069c-4.418,0-8-3.582-8-8V18.994V8.739V0.74h8h6.923h224.536H375.45z"/>
	<path d="M367.45,321.736H145.069V496.74H367.45V321.736L367.45,321.736z M137.069,305.736H375.45c4.418,0,8,3.582,8,8V504.74
		c0,4.417-3.582,8-8,8H137.069c-4.418,0-8-3.583-8-8V313.736C129.069,309.318,132.651,305.736,137.069,305.736z"/>
	<rect x="178.51" y="393.306" width="155.499" height="16.001"/>
	<rect x="178.51" y="429.074" width="155.499" height="15.999"/>
	<rect x="178.51" y="464.841" width="155.499" height="16"/>
	<path fill-rule="evenodd" clip-rule="evenodd" d="M420.804,255.192h13.114c2.189,0,3.979,1.792,3.979,3.979v13.116
		c0,2.188-1.79,3.979-3.979,3.979h-13.114c-2.189,0-3.979-1.791-3.979-3.979v-13.116
		C416.824,256.983,418.615,255.192,420.804,255.192L420.804,255.192z M480.408,342.011V148.076c0-8.865-3.62-16.918-9.454-22.751
		c-5.833-5.833-13.886-9.454-22.751-9.454H383.45h-16H145.069h-16H64.317c-8.865,0-16.918,3.622-22.751,9.454
		c-5.833,5.833-9.454,13.886-9.454,22.751v193.935c0,8.865,3.621,16.917,9.454,22.751c5.833,5.833,13.886,9.454,22.751,9.454h56.752
		v-60.479c0-8.833,7.166-16,16-16H375.45c8.834,0,16,7.167,16,16v60.479h56.753c8.865,0,16.918-3.621,22.751-9.454
		C476.788,358.928,480.408,350.876,480.408,342.011L480.408,342.011z M91.716,165.292c2.188,0,3.98,1.791,3.98,3.979v13.116
		c0,2.189-1.792,3.979-3.98,3.979H78.6c-2.188,0-3.979-1.79-3.979-3.979v-13.116c0-2.188,1.791-3.979,3.979-3.979H91.716
		L91.716,165.292z M91.716,195.259c2.188,0,3.98,1.791,3.98,3.979v13.116c0,2.188-1.792,3.979-3.98,3.979H78.6
		c-2.188,0-3.979-1.791-3.979-3.979v-13.116c0-2.188,1.791-3.979,3.979-3.979H91.716L91.716,195.259z M91.716,225.226
		c2.188,0,3.98,1.791,3.98,3.979v13.116c0,2.189-1.792,3.979-3.98,3.979H78.6c-2.188,0-3.979-1.79-3.979-3.979v-13.116
		c0-2.188,1.791-3.979,3.979-3.979H91.716L91.716,225.226z M78.6,255.192h13.116c2.188,0,3.98,1.792,3.98,3.979v13.116
		c0,2.188-1.792,3.979-3.98,3.979H78.6c-2.188,0-3.979-1.791-3.979-3.979v-13.116C74.622,256.983,76.413,255.192,78.6,255.192
		L78.6,255.192z M416.824,182.387v-13.116c0-2.188,1.79-3.979,3.979-3.979h13.114c2.189,0,3.979,1.791,3.979,3.979v13.116
		c0,2.189-1.79,3.979-3.979,3.979h-13.114C418.615,186.366,416.824,184.576,416.824,182.387L416.824,182.387z M416.824,199.238
		c0-2.188,1.79-3.979,3.979-3.979h13.114c2.189,0,3.979,1.791,3.979,3.979v13.116c0,2.188-1.79,3.979-3.979,3.979h-13.114
		c-2.189,0-3.979-1.791-3.979-3.979V199.238L416.824,199.238z M416.824,229.205c0-2.188,1.79-3.979,3.979-3.979h13.114
		c2.189,0,3.979,1.791,3.979,3.979v13.116c0,2.189-1.79,3.979-3.979,3.979h-13.114c-2.189,0-3.979-1.79-3.979-3.979V229.205z"/>
	<rect x="129.07" y="496.74" fill-rule="evenodd" clip-rule="evenodd" width="254.381" height="16"/>
	<rect x="129.07" y="305.736" fill-rule="evenodd" clip-rule="evenodd" width="254.381" height="16"/>
</g>
</svg>
